<svg width="81" height="81" viewBox="0 0 81 81" fill="none" xmlns="http://www.w3.org/2000/svg">
<mask id="mask0_332_936" style="mask-type:luminance" maskUnits="userSpaceOnUse" x="0" y="0" width="81" height="81">
<path d="M0 0.000221252H80.4357V80.1084H0V0.000221252Z" fill="white"/>
</mask>
<g mask="url(#mask0_332_936)">
<path d="M28.9314 43.3559L20.2563 40.5291C20.2563 40.5291 19.2208 40.1088 19.5534 39.1547C19.6221 38.958 19.7604 38.7908 20.1746 38.5018C22.0973 37.1621 55.756 25.0639 55.756 25.0639C55.756 25.0639 56.7065 24.744 57.2684 24.9567C57.5251 25.054 57.689 25.1639 57.827 25.5652C57.8773 25.7113 57.9062 26.022 57.9023 26.3311C57.8993 26.554 57.8722 26.7604 57.8523 27.0842C57.6474 30.3922 51.5135 55.0778 51.5135 55.0778C51.5135 55.0778 51.1466 56.5224 49.8315 56.5715C49.3519 56.5896 48.7698 56.4923 48.0739 55.8937C45.4935 53.6739 36.5738 47.6795 34.6031 46.3614C34.4917 46.2873 34.4603 46.1906 34.4414 46.0963C34.4136 45.9577 34.5619 45.7848 34.5619 45.7848C34.5619 45.7848 50.093 31.979 50.5064 30.5305C50.5383 30.4181 50.4181 30.3627 50.2551 30.4112C49.2236 30.7908 31.3413 42.0825 29.3679 43.3297C29.2525 43.4026 28.929 43.3556 28.929 43.3556" fill="white"/>
</g>
</svg>
