<svg width="15" height="15" viewBox="0 0 15 15" fill="none" xmlns="http://www.w3.org/2000/svg">
<path d="M0.500076 8.00043H8.29627L7.14609 9.1456C7.09922 9.19209 7.06202 9.2474 7.03663 9.30834C7.01124 9.36928 6.99817 9.43464 6.99817 9.50066C6.99817 9.56667 7.01124 9.63204 7.03663 9.69298C7.06202 9.75391 7.09922 9.80922 7.14609 9.85571C7.19258 9.90258 7.24789 9.93979 7.30883 9.96518C7.36977 9.99056 7.43513 10.0036 7.50115 10.0036C7.56716 10.0036 7.63252 9.99056 7.69346 9.96518C7.7544 9.93979 7.80971 9.90258 7.8562 9.85571L9.8565 7.85541C9.90203 7.80785 9.93772 7.75177 9.96152 7.69038C10.0115 7.56863 10.0115 7.43207 9.96152 7.31032C9.93772 7.24894 9.90203 7.19286 9.8565 7.1453L7.8562 5.14499C7.76203 5.05083 7.63432 4.99792 7.50115 4.99792C7.36797 4.99792 7.24026 5.05083 7.14609 5.14499C7.05192 5.23916 6.99902 5.36688 6.99902 5.50005C6.99902 5.63322 7.05192 5.76094 7.14609 5.8551L8.29627 7.00028H0.500076C0.367448 7.00028 0.240251 7.05296 0.146469 7.14675C0.0526864 7.24053 0 7.36772 0 7.50035C0 7.63298 0.0526864 7.76018 0.146469 7.85396C0.240251 7.94774 0.367448 8.00043 0.500076 8.00043Z" fill="black"/>
<path d="M0.500076 8.00043H8.29627L7.14609 9.1456C7.09922 9.19209 7.06202 9.2474 7.03663 9.30834C7.01124 9.36928 6.99817 9.43464 6.99817 9.50066C6.99817 9.56667 7.01124 9.63204 7.03663 9.69298C7.06202 9.75391 7.09922 9.80922 7.14609 9.85571C7.19258 9.90258 7.24789 9.93979 7.30883 9.96518C7.36977 9.99056 7.43513 10.0036 7.50115 10.0036C7.56716 10.0036 7.63252 9.99056 7.69346 9.96518C7.7544 9.93979 7.80971 9.90258 7.8562 9.85571L9.8565 7.85541C9.90203 7.80785 9.93772 7.75177 9.96152 7.69038C10.0115 7.56863 10.0115 7.43207 9.96152 7.31032C9.93772 7.24894 9.90203 7.19286 9.8565 7.1453L7.8562 5.14499C7.76203 5.05083 7.63432 4.99792 7.50115 4.99792C7.36797 4.99792 7.24026 5.05083 7.14609 5.14499C7.05192 5.23916 6.99902 5.36688 6.99902 5.50005C6.99902 5.63322 7.05192 5.76094 7.14609 5.8551L8.29627 7.00028H0.500076C0.367448 7.00028 0.240251 7.05296 0.146469 7.14675C0.0526864 7.24053 0 7.36772 0 7.50035C0 7.63298 0.0526864 7.76018 0.146469 7.85396C0.240251 7.94774 0.367448 8.00043 0.500076 8.00043Z" fill="url(#paint0_linear_332_1444)"/>
<path d="M0.500076 8.00043H8.29627L7.14609 9.1456C7.09922 9.19209 7.06202 9.2474 7.03663 9.30834C7.01124 9.36928 6.99817 9.43464 6.99817 9.50066C6.99817 9.56667 7.01124 9.63204 7.03663 9.69298C7.06202 9.75391 7.09922 9.80922 7.14609 9.85571C7.19258 9.90258 7.24789 9.93979 7.30883 9.96518C7.36977 9.99056 7.43513 10.0036 7.50115 10.0036C7.56716 10.0036 7.63252 9.99056 7.69346 9.96518C7.7544 9.93979 7.80971 9.90258 7.8562 9.85571L9.8565 7.85541C9.90203 7.80785 9.93772 7.75177 9.96152 7.69038C10.0115 7.56863 10.0115 7.43207 9.96152 7.31032C9.93772 7.24894 9.90203 7.19286 9.8565 7.1453L7.8562 5.14499C7.76203 5.05083 7.63432 4.99792 7.50115 4.99792C7.36797 4.99792 7.24026 5.05083 7.14609 5.14499C7.05192 5.23916 6.99902 5.36688 6.99902 5.50005C6.99902 5.63322 7.05192 5.76094 7.14609 5.8551L8.29627 7.00028H0.500076C0.367448 7.00028 0.240251 7.05296 0.146469 7.14675C0.0526864 7.24053 0 7.36772 0 7.50035C0 7.63298 0.0526864 7.76018 0.146469 7.85396C0.240251 7.94774 0.367448 8.00043 0.500076 8.00043Z" fill="#2EB897"/>
<path d="M7.50111 -0.00109863C5.88456 0.00527016 4.31279 0.530593 3.01728 1.4975C1.72177 2.46441 0.771002 3.82178 0.305009 5.36972C0.285099 5.4334 0.278135 5.50043 0.284526 5.56684C0.290918 5.63326 0.310536 5.69773 0.342225 5.75644C0.373914 5.81516 0.417033 5.86695 0.469042 5.90874C0.521052 5.95054 0.5809 5.98151 0.645061 5.99982C0.772384 6.03695 0.909245 6.02199 1.02554 5.95822C1.14183 5.89444 1.22802 5.78709 1.26516 5.65977C1.70871 4.16139 2.67713 2.87292 3.9931 2.03026C5.30908 1.18761 6.88454 0.847157 8.43104 1.07125C9.97753 1.29534 11.3916 2.06898 12.4142 3.25051C13.4369 4.43204 13.9998 5.9424 13.9998 7.50505C13.9998 9.06769 13.4369 10.5781 12.4142 11.7596C11.3916 12.9411 9.97753 13.7148 8.43104 13.9388C6.88454 14.1629 5.30908 13.8225 3.9931 12.9798C2.67713 12.1372 1.70871 10.8487 1.26516 9.35033C1.24783 9.28638 1.21797 9.22652 1.17731 9.17421C1.13666 9.1219 1.08601 9.07819 1.02832 9.04562C0.970622 9.01305 0.907032 8.99227 0.841239 8.98449C0.775446 8.9767 0.708762 8.98207 0.645061 9.00028C0.581461 9.01863 0.522139 9.04943 0.470533 9.09088C0.418927 9.13234 0.376065 9.18363 0.344432 9.24178C0.3128 9.29992 0.293027 9.36377 0.286259 9.42962C0.279492 9.49547 0.285865 9.56201 0.305009 9.62537C0.699365 10.9602 1.45732 12.1589 2.4941 13.0876C3.53087 14.0162 4.80556 14.638 6.17558 14.8836C7.5456 15.1291 8.95691 14.9886 10.2516 14.4778C11.5464 13.967 12.6734 13.106 13.5068 11.9912C14.3401 10.8764 14.8469 9.55177 14.9703 8.16541C15.0938 6.77905 14.8291 5.38568 14.2059 4.14117C13.5826 2.89667 12.6254 1.8501 11.4413 1.11855C10.2572 0.387009 8.89295 -0.000664578 7.50111 -0.00109863Z" fill="black"/>
<path d="M7.50111 -0.00109863C5.88456 0.00527016 4.31279 0.530593 3.01728 1.4975C1.72177 2.46441 0.771002 3.82178 0.305009 5.36972C0.285099 5.4334 0.278135 5.50043 0.284526 5.56684C0.290918 5.63326 0.310536 5.69773 0.342225 5.75644C0.373914 5.81516 0.417033 5.86695 0.469042 5.90874C0.521052 5.95054 0.5809 5.98151 0.645061 5.99982C0.772384 6.03695 0.909245 6.02199 1.02554 5.95822C1.14183 5.89444 1.22802 5.78709 1.26516 5.65977C1.70871 4.16139 2.67713 2.87292 3.9931 2.03026C5.30908 1.18761 6.88454 0.847157 8.43104 1.07125C9.97753 1.29534 11.3916 2.06898 12.4142 3.25051C13.4369 4.43204 13.9998 5.9424 13.9998 7.50505C13.9998 9.06769 13.4369 10.5781 12.4142 11.7596C11.3916 12.9411 9.97753 13.7148 8.43104 13.9388C6.88454 14.1629 5.30908 13.8225 3.9931 12.9798C2.67713 12.1372 1.70871 10.8487 1.26516 9.35033C1.24783 9.28638 1.21797 9.22652 1.17731 9.17421C1.13666 9.1219 1.08601 9.07819 1.02832 9.04562C0.970622 9.01305 0.907032 8.99227 0.841239 8.98449C0.775446 8.9767 0.708762 8.98207 0.645061 9.00028C0.581461 9.01863 0.522139 9.04943 0.470533 9.09088C0.418927 9.13234 0.376065 9.18363 0.344432 9.24178C0.3128 9.29992 0.293027 9.36377 0.286259 9.42962C0.279492 9.49547 0.285865 9.56201 0.305009 9.62537C0.699365 10.9602 1.45732 12.1589 2.4941 13.0876C3.53087 14.0162 4.80556 14.638 6.17558 14.8836C7.5456 15.1291 8.95691 14.9886 10.2516 14.4778C11.5464 13.967 12.6734 13.106 13.5068 11.9912C14.3401 10.8764 14.8469 9.55177 14.9703 8.16541C15.0938 6.77905 14.8291 5.38568 14.2059 4.14117C13.5826 2.89667 12.6254 1.8501 11.4413 1.11855C10.2572 0.387009 8.89295 -0.000664578 7.50111 -0.00109863Z" fill="url(#paint1_linear_332_1444)"/>
<path d="M7.50111 -0.00109863C5.88456 0.00527016 4.31279 0.530593 3.01728 1.4975C1.72177 2.46441 0.771002 3.82178 0.305009 5.36972C0.285099 5.4334 0.278135 5.50043 0.284526 5.56684C0.290918 5.63326 0.310536 5.69773 0.342225 5.75644C0.373914 5.81516 0.417033 5.86695 0.469042 5.90874C0.521052 5.95054 0.5809 5.98151 0.645061 5.99982C0.772384 6.03695 0.909245 6.02199 1.02554 5.95822C1.14183 5.89444 1.22802 5.78709 1.26516 5.65977C1.70871 4.16139 2.67713 2.87292 3.9931 2.03026C5.30908 1.18761 6.88454 0.847157 8.43104 1.07125C9.97753 1.29534 11.3916 2.06898 12.4142 3.25051C13.4369 4.43204 13.9998 5.9424 13.9998 7.50505C13.9998 9.06769 13.4369 10.5781 12.4142 11.7596C11.3916 12.9411 9.97753 13.7148 8.43104 13.9388C6.88454 14.1629 5.30908 13.8225 3.9931 12.9798C2.67713 12.1372 1.70871 10.8487 1.26516 9.35033C1.24783 9.28638 1.21797 9.22652 1.17731 9.17421C1.13666 9.1219 1.08601 9.07819 1.02832 9.04562C0.970622 9.01305 0.907032 8.99227 0.841239 8.98449C0.775446 8.9767 0.708762 8.98207 0.645061 9.00028C0.581461 9.01863 0.522139 9.04943 0.470533 9.09088C0.418927 9.13234 0.376065 9.18363 0.344432 9.24178C0.3128 9.29992 0.293027 9.36377 0.286259 9.42962C0.279492 9.49547 0.285865 9.56201 0.305009 9.62537C0.699365 10.9602 1.45732 12.1589 2.4941 13.0876C3.53087 14.0162 4.80556 14.638 6.17558 14.8836C7.5456 15.1291 8.95691 14.9886 10.2516 14.4778C11.5464 13.967 12.6734 13.106 13.5068 11.9912C14.3401 10.8764 14.8469 9.55177 14.9703 8.16541C15.0938 6.77905 14.8291 5.38568 14.2059 4.14117C13.5826 2.89667 12.6254 1.8501 11.4413 1.11855C10.2572 0.387009 8.89295 -0.000664578 7.50111 -0.00109863Z" fill="#2EB897"/>
<defs>
<linearGradient id="paint0_linear_332_1444" x1="0.583601" y1="4.99793" x2="17.3601" y2="5.85446" gradientUnits="userSpaceOnUse">
<stop stop-color="#11AE88"/>
<stop offset="1" stop-color="#2A84EE"/>
</linearGradient>
<linearGradient id="paint1_linear_332_1444" x1="1.14124" y1="-0.00108586" x2="25.8836" y2="0.619313" gradientUnits="userSpaceOnUse">
<stop stop-color="#11AE88"/>
<stop offset="1" stop-color="#2A84EE"/>
</linearGradient>
</defs>
</svg>
