<svg width="192" height="18" viewBox="0 0 192 18" fill="none" xmlns="http://www.w3.org/2000/svg">
<path d="M41.251 16.0335C40.8835 16.0335 40.6078 15.977 40.4241 15.8639C40.2403 15.7508 40.1202 15.5953 40.0636 15.3974C40.0212 15.1995 40 14.9804 40 14.7401V2.50547C40 2.2793 40.0212 2.07433 40.0636 1.89056C40.1202 1.69266 40.2403 1.53716 40.4241 1.42408C40.6078 1.29685 40.8976 1.23324 41.2934 1.23324C41.5903 1.23324 41.8094 1.25445 41.9508 1.29685C42.1063 1.32513 42.2264 1.3746 42.3112 1.44528C42.396 1.50183 42.4809 1.57957 42.5657 1.67852L47.7394 8.90904H47.2517L52.4467 1.65732C52.5456 1.54423 52.6446 1.45942 52.7435 1.40287C52.8425 1.34633 52.9697 1.30392 53.1252 1.27565C53.2807 1.24738 53.4857 1.23324 53.7401 1.23324C54.1218 1.23324 54.4045 1.29685 54.5883 1.42408C54.772 1.53716 54.8851 1.69266 54.9275 1.89056C54.9841 2.08846 55.0123 2.30757 55.0123 2.54788V14.7825C55.0123 14.9945 54.9841 15.1995 54.9275 15.3974C54.8851 15.5953 54.772 15.7508 54.5883 15.8639C54.4045 15.977 54.1147 16.0335 53.7189 16.0335C53.3372 16.0335 53.0545 15.9699 52.8707 15.8427C52.687 15.7296 52.5668 15.5741 52.5103 15.3762C52.4679 15.1783 52.4467 14.9663 52.4467 14.7401V5.64365L48.5876 11.2203C48.5452 11.2768 48.4815 11.3546 48.3967 11.4535C48.3119 11.5383 48.1988 11.6161 48.0575 11.6867C47.9161 11.7574 47.7253 11.7928 47.485 11.7928C47.2588 11.7928 47.075 11.7574 46.9337 11.6867C46.7923 11.6161 46.6792 11.5383 46.5944 11.4535C46.5237 11.3687 46.453 11.2839 46.3824 11.1991L42.5445 5.64365V14.7825C42.5445 14.9945 42.5162 15.1995 42.4596 15.3974C42.4172 15.5953 42.3042 15.7508 42.1204 15.8639C41.9366 15.977 41.6468 16.0335 41.251 16.0335Z" fill="#212121"/>
<path d="M60.4047 16.0335C60.0089 16.0335 59.7191 15.977 59.5354 15.8639C59.3516 15.7508 59.2385 15.5953 59.1961 15.3974C59.1537 15.1854 59.1325 14.9663 59.1325 14.7401V2.50547C59.1325 2.2793 59.1537 2.07433 59.1961 1.89056C59.2527 1.69266 59.3728 1.53716 59.5566 1.42408C59.7404 1.29685 60.0301 1.23324 60.4259 1.23324H64.9212C65.5431 1.23324 66.151 1.33926 66.7447 1.5513C67.3384 1.76334 67.8685 2.0814 68.335 2.50547C68.8156 2.92955 69.1902 3.45258 69.4588 4.07456C69.7415 4.69654 69.8829 5.42454 69.8829 6.25856C69.8829 7.07844 69.7415 7.79937 69.4588 8.42135C69.1902 9.02919 68.8156 9.54516 68.335 9.96923C67.8544 10.3933 67.3172 10.7114 66.7235 10.9234C66.1439 11.1354 65.5361 11.2415 64.9 11.2415H61.6982V14.7613C61.6982 14.9875 61.6699 15.1995 61.6134 15.3974C61.571 15.5953 61.4579 15.7508 61.2741 15.8639C61.1045 15.977 60.8147 16.0335 60.4047 16.0335ZM61.6982 8.65459H64.9212C65.3594 8.65459 65.7552 8.56978 66.1086 8.40015C66.4761 8.21638 66.773 7.9478 66.9991 7.5944C67.2253 7.22687 67.3384 6.76745 67.3384 6.21615C67.3384 5.72139 67.2324 5.29732 67.0203 4.94392C66.8224 4.57639 66.5397 4.29367 66.1722 4.09576C65.8188 3.89786 65.3947 3.79891 64.9 3.79891H61.6982V8.65459Z" fill="#212121"/>
<path d="M85.0781 14.2524C85.2194 14.521 85.2901 14.7613 85.2901 14.9733C85.3043 15.1712 85.2477 15.3479 85.1205 15.5034C84.9933 15.6448 84.7812 15.7932 84.4844 15.9487C84.032 16.1608 83.6786 16.2173 83.4242 16.1184C83.1839 16.0194 82.9577 15.7438 82.7457 15.2914L78.0172 5.30438L73.3099 15.2914C73.0979 15.7296 72.8647 15.9911 72.6102 16.0759C72.3558 16.1749 72.0024 16.1254 71.55 15.9275C71.2673 15.7862 71.0553 15.6377 70.9139 15.4822C70.7867 15.3267 70.7301 15.143 70.7443 14.9309C70.7725 14.7048 70.8644 14.4362 71.0199 14.1252L76.851 1.97538C76.9641 1.7492 77.1266 1.5725 77.3387 1.44528C77.5648 1.30392 77.7981 1.23324 78.0384 1.23324C78.208 1.23324 78.3635 1.26151 78.5049 1.31806C78.6462 1.3746 78.7735 1.45942 78.8866 1.5725C79.0138 1.68559 79.1198 1.82695 79.2046 1.99658L85.0781 14.2524ZM74.2429 12.1956L75.2607 10.0116H80.7949L81.8127 12.1956H74.2429Z" fill="#212121"/>
<path d="M92.9459 16.2456C92.3098 16.2456 91.7302 16.1678 91.2072 16.0123C90.6983 15.8568 90.2459 15.6589 89.8501 15.4186C89.4684 15.1783 89.1433 14.9309 88.8747 14.6765C88.6061 14.422 88.4082 14.1888 88.281 13.9768C88.0973 13.7223 87.9771 13.4961 87.9206 13.2982C87.864 13.1003 87.8782 12.9095 87.963 12.7257C88.0619 12.5278 88.2386 12.3229 88.4931 12.1108C88.7475 11.8846 88.9807 11.7716 89.1928 11.7716C89.419 11.7574 89.631 11.821 89.8289 11.9624C90.0409 12.1038 90.2459 12.3017 90.4438 12.5561C90.7831 13.0085 91.1647 13.3336 91.5888 13.5315C92.0129 13.7152 92.437 13.8071 92.8611 13.8071C93.4124 13.8071 93.893 13.7365 94.3029 13.5951C94.7129 13.4396 95.0309 13.2134 95.2571 12.9166C95.4974 12.6197 95.6176 12.238 95.6176 11.7716C95.6176 11.3899 95.4974 11.0789 95.2571 10.8386C95.0309 10.5841 94.727 10.3721 94.3453 10.2025C93.9637 10.0187 93.5325 9.85615 93.0519 9.71479C92.5854 9.55929 92.1119 9.38966 91.6312 9.20589C91.292 9.09281 90.9527 8.95852 90.6134 8.80302C90.2742 8.63339 89.9561 8.44255 89.6593 8.23052C89.3766 8.01848 89.1221 7.7711 88.8959 7.48838C88.6839 7.19153 88.5143 6.85227 88.387 6.4706C88.2598 6.08893 88.1962 5.64365 88.1962 5.13475C88.1962 4.32901 88.3941 3.62221 88.7899 3.01437C89.1857 2.39239 89.737 1.9047 90.4438 1.5513C91.1506 1.18377 91.9564 1 92.8611 1C93.4406 1 93.9566 1.05654 94.4089 1.16963C94.8754 1.26858 95.2712 1.40287 95.5964 1.5725C95.9356 1.728 96.2113 1.89056 96.4233 2.06019C96.6495 2.21569 96.812 2.34998 96.911 2.46307C97.2361 2.78819 97.4128 3.06384 97.4411 3.29002C97.4835 3.50206 97.3563 3.79184 97.0594 4.15938C96.7626 4.54104 96.4728 4.75308 96.1901 4.79549C95.9215 4.82376 95.6176 4.71068 95.2783 4.45623C95.0521 4.21592 94.8259 4.02508 94.5998 3.88373C94.3736 3.72823 94.1192 3.61514 93.8364 3.54446C93.5679 3.47378 93.2357 3.43844 92.8399 3.43844C92.5571 3.43844 92.2815 3.48085 92.0129 3.56567C91.7585 3.63635 91.5394 3.74943 91.3556 3.90493C91.1718 4.04629 91.0234 4.22299 90.9103 4.43503C90.8113 4.64706 90.7619 4.88738 90.7619 5.15596C90.7619 5.52349 90.8608 5.82741 91.0587 6.06772C91.2708 6.2939 91.5535 6.48473 91.9069 6.64023C92.2603 6.78159 92.6561 6.91588 93.0943 7.0431C93.5325 7.17032 93.9778 7.30461 94.4301 7.44597C94.8966 7.60147 95.356 7.78523 95.8084 7.99727C96.2607 8.20931 96.6636 8.4779 97.017 8.80302C97.3704 9.11401 97.6531 9.50982 97.8652 9.99044C98.0772 10.4569 98.1832 11.0294 98.1832 11.7079C98.1832 12.4854 98.0348 13.1639 97.7379 13.7435C97.4411 14.3231 97.0382 14.7966 96.5293 15.1642C96.0204 15.5317 95.455 15.8003 94.833 15.9699C94.211 16.1537 93.582 16.2456 92.9459 16.2456Z" fill="#212121"/>
<path d="M106.3 16.2456C105.664 16.2456 105.084 16.1678 104.561 16.0123C104.053 15.8568 103.6 15.6589 103.204 15.4186C102.823 15.1783 102.498 14.9309 102.229 14.6765C101.96 14.422 101.763 14.1888 101.635 13.9768C101.452 13.7223 101.331 13.4961 101.275 13.2982C101.218 13.1003 101.232 12.9095 101.317 12.7257C101.416 12.5278 101.593 12.3229 101.847 12.1108C102.102 11.8846 102.335 11.7716 102.547 11.7716C102.773 11.7574 102.985 11.821 103.183 11.9624C103.395 12.1038 103.6 12.3017 103.798 12.5561C104.137 13.0085 104.519 13.3336 104.943 13.5315C105.367 13.7152 105.791 13.8071 106.215 13.8071C106.767 13.8071 107.247 13.7365 107.657 13.5951C108.067 13.4396 108.385 13.2134 108.611 12.9166C108.852 12.6197 108.972 12.238 108.972 11.7716C108.972 11.3899 108.852 11.0789 108.611 10.8386C108.385 10.5841 108.081 10.3721 107.7 10.2025C107.318 10.0187 106.887 9.85615 106.406 9.71479C105.94 9.55929 105.466 9.38966 104.986 9.20589C104.646 9.09281 104.307 8.95852 103.968 8.80302C103.628 8.63339 103.31 8.44255 103.014 8.23052C102.731 8.01848 102.476 7.7711 102.25 7.48838C102.038 7.19153 101.869 6.85227 101.741 6.4706C101.614 6.08893 101.55 5.64365 101.55 5.13475C101.55 4.32901 101.748 3.62221 102.144 3.01437C102.54 2.39239 103.091 1.9047 103.798 1.5513C104.505 1.18377 105.311 1 106.215 1C106.795 1 107.311 1.05654 107.763 1.16963C108.23 1.26858 108.626 1.40287 108.951 1.5725C109.29 1.728 109.566 1.89056 109.778 2.06019C110.004 2.21569 110.166 2.34998 110.265 2.46307C110.59 2.78819 110.767 3.06384 110.795 3.29002C110.838 3.50206 110.711 3.79184 110.414 4.15938C110.117 4.54104 109.827 4.75308 109.544 4.79549C109.276 4.82376 108.972 4.71068 108.633 4.45623C108.406 4.21592 108.18 4.02508 107.954 3.88373C107.728 3.72823 107.473 3.61514 107.191 3.54446C106.922 3.47378 106.59 3.43844 106.194 3.43844C105.911 3.43844 105.636 3.48085 105.367 3.56567C105.113 3.63635 104.894 3.74943 104.71 3.90493C104.526 4.04629 104.378 4.22299 104.265 4.43503C104.166 4.64706 104.116 4.88738 104.116 5.15596C104.116 5.52349 104.215 5.82741 104.413 6.06772C104.625 6.2939 104.908 6.48473 105.261 6.64023C105.615 6.78159 106.01 6.91588 106.449 7.0431C106.887 7.17032 107.332 7.30461 107.784 7.44597C108.251 7.60147 108.71 7.78523 109.163 7.99727C109.615 8.20931 110.018 8.4779 110.371 8.80302C110.725 9.11401 111.007 9.50982 111.219 9.99044C111.431 10.4569 111.538 11.0294 111.538 11.7079C111.538 12.4854 111.389 13.1639 111.092 13.7435C110.795 14.3231 110.393 14.7966 109.884 15.1642C109.375 15.5317 108.809 15.8003 108.187 15.9699C107.565 16.1537 106.936 16.2456 106.3 16.2456Z" fill="#212121"/>
<path d="M116.283 16.0547C115.887 16.0547 115.597 15.9911 115.414 15.8639C115.23 15.7508 115.117 15.5953 115.074 15.3974C115.032 15.1995 115.011 14.9804 115.011 14.7401V2.50547C115.011 2.2793 115.032 2.06726 115.074 1.86936C115.131 1.67146 115.244 1.51596 115.414 1.40287C115.597 1.28979 115.894 1.23324 116.304 1.23324C116.7 1.23324 116.983 1.28979 117.152 1.40287C117.336 1.51596 117.449 1.67146 117.492 1.86936C117.548 2.06726 117.576 2.28637 117.576 2.52668V14.7613C117.576 15.0016 117.548 15.2207 117.492 15.4186C117.449 15.6024 117.336 15.7508 117.152 15.8639C116.969 15.9911 116.679 16.0547 116.283 16.0547Z" fill="#212121"/>
<path d="M126.093 16.2456C125.457 16.2456 124.877 16.1678 124.354 16.0123C123.845 15.8568 123.393 15.6589 122.997 15.4186C122.615 15.1783 122.29 14.9309 122.022 14.6765C121.753 14.422 121.555 14.1888 121.428 13.9768C121.244 13.7223 121.124 13.4961 121.067 13.2982C121.011 13.1003 121.025 12.9095 121.11 12.7257C121.209 12.5278 121.385 12.3229 121.64 12.1108C121.894 11.8846 122.128 11.7716 122.34 11.7716C122.566 11.7574 122.778 11.821 122.976 11.9624C123.188 12.1038 123.393 12.3017 123.591 12.5561C123.93 13.0085 124.312 13.3336 124.736 13.5315C125.16 13.7152 125.584 13.8071 126.008 13.8071C126.559 13.8071 127.04 13.7365 127.45 13.5951C127.86 13.4396 128.178 13.2134 128.404 12.9166C128.644 12.6197 128.764 12.238 128.764 11.7716C128.764 11.3899 128.644 11.0789 128.404 10.8386C128.178 10.5841 127.874 10.3721 127.492 10.2025C127.11 10.0187 126.679 9.85615 126.199 9.71479C125.732 9.55929 125.259 9.38966 124.778 9.20589C124.439 9.09281 124.099 8.95852 123.76 8.80302C123.421 8.63339 123.103 8.44255 122.806 8.23052C122.523 8.01848 122.269 7.7711 122.043 7.48838C121.831 7.19153 121.661 6.85227 121.534 6.4706C121.407 6.08893 121.343 5.64365 121.343 5.13475C121.343 4.32901 121.541 3.62221 121.937 3.01437C122.332 2.39239 122.884 1.9047 123.591 1.5513C124.297 1.18377 125.103 1 126.008 1C126.587 1 127.103 1.05654 127.556 1.16963C128.022 1.26858 128.418 1.40287 128.743 1.5725C129.082 1.728 129.358 1.89056 129.57 2.06019C129.796 2.21569 129.959 2.34998 130.058 2.46307C130.383 2.78819 130.56 3.06384 130.588 3.29002C130.63 3.50206 130.503 3.79184 130.206 4.15938C129.909 4.54104 129.62 4.75308 129.337 4.79549C129.068 4.82376 128.764 4.71068 128.425 4.45623C128.199 4.21592 127.973 4.02508 127.747 3.88373C127.52 3.72823 127.266 3.61514 126.983 3.54446C126.715 3.47378 126.382 3.43844 125.987 3.43844C125.704 3.43844 125.428 3.48085 125.16 3.56567C124.905 3.63635 124.686 3.74943 124.502 3.90493C124.319 4.04629 124.17 4.22299 124.057 4.43503C123.958 4.64706 123.909 4.88738 123.909 5.15596C123.909 5.52349 124.008 5.82741 124.206 6.06772C124.418 6.2939 124.7 6.48473 125.054 6.64023C125.407 6.78159 125.803 6.91588 126.241 7.0431C126.679 7.17032 127.125 7.30461 127.577 7.44597C128.043 7.60147 128.503 7.78523 128.955 7.99727C129.408 8.20931 129.81 8.4779 130.164 8.80302C130.517 9.11401 130.8 9.50982 131.012 9.99044C131.224 10.4569 131.33 11.0294 131.33 11.7079C131.33 12.4854 131.182 13.1639 130.885 13.7435C130.588 14.3231 130.185 14.7966 129.676 15.1642C129.167 15.5317 128.602 15.8003 127.98 15.9699C127.358 16.1537 126.729 16.2456 126.093 16.2456Z" fill="#212121"/>
<path d="M144.816 1.21204C145.028 1.21204 145.211 1.23324 145.367 1.27565C145.537 1.31806 145.671 1.42408 145.77 1.59371C145.869 1.7492 145.918 2.00365 145.918 2.35705C145.918 2.71045 145.869 2.97196 145.77 3.14159C145.671 3.29709 145.537 3.39604 145.367 3.43844C145.197 3.46672 145.006 3.48085 144.794 3.48085H140.893V14.7825C140.893 15.0228 140.865 15.2419 140.808 15.4398C140.766 15.6236 140.653 15.772 140.469 15.8851C140.299 15.9982 140.009 16.0547 139.6 16.0547C139.218 16.0547 138.935 15.9911 138.751 15.8639C138.568 15.7508 138.454 15.6024 138.412 15.4186C138.37 15.2207 138.348 15.0016 138.348 14.7613V3.48085H134.405C134.207 3.48085 134.023 3.45965 133.853 3.41724C133.684 3.37483 133.542 3.27588 133.429 3.12039C133.33 2.96489 133.281 2.71045 133.281 2.35705C133.281 2.00365 133.33 1.7492 133.429 1.59371C133.528 1.42408 133.662 1.31806 133.832 1.27565C134.016 1.23324 134.207 1.21204 134.405 1.21204H144.816Z" fill="#212121"/>
<path d="M159.302 14.2524C159.444 14.521 159.514 14.7613 159.514 14.9733C159.529 15.1712 159.472 15.3479 159.345 15.5034C159.218 15.6448 159.006 15.7932 158.709 15.9487C158.256 16.1608 157.903 16.2173 157.648 16.1184C157.408 16.0194 157.182 15.7438 156.97 15.2914L152.241 5.30438L147.534 15.2914C147.322 15.7296 147.089 15.9911 146.834 16.0759C146.58 16.1749 146.227 16.1254 145.774 15.9275C145.492 15.7862 145.28 15.6377 145.138 15.4822C145.011 15.3267 144.954 15.143 144.969 14.9309C144.997 14.7048 145.089 14.4362 145.244 14.1252L151.075 1.97538C151.188 1.7492 151.351 1.5725 151.563 1.44528C151.789 1.30392 152.022 1.23324 152.263 1.23324C152.432 1.23324 152.588 1.26151 152.729 1.31806C152.871 1.3746 152.998 1.45942 153.111 1.5725C153.238 1.68559 153.344 1.82695 153.429 1.99658L159.302 14.2524ZM148.467 12.1956L149.485 10.0116H155.019L156.037 12.1956H148.467Z" fill="#212121"/>
<path d="M163.799 16.0335C163.417 16.0335 163.134 15.9699 162.951 15.8427C162.781 15.7296 162.668 15.5741 162.611 15.3762C162.569 15.1783 162.548 14.9663 162.548 14.7401V2.44186C162.548 2.22982 162.576 2.03192 162.633 1.84815C162.689 1.66439 162.809 1.51596 162.993 1.40287C163.191 1.28979 163.481 1.23324 163.862 1.23324C164.286 1.23324 164.576 1.28272 164.732 1.38167C164.901 1.46648 165.057 1.59371 165.198 1.76334L172.28 11.6655V2.44186C172.28 2.22982 172.309 2.03192 172.365 1.84815C172.422 1.66439 172.542 1.51596 172.726 1.40287C172.909 1.28979 173.192 1.23324 173.574 1.23324C173.97 1.23324 174.252 1.29685 174.422 1.42408C174.606 1.53716 174.719 1.69266 174.761 1.89056C174.818 2.08846 174.846 2.30757 174.846 2.54788V14.7613C174.846 14.9875 174.811 15.1995 174.74 15.3974C174.683 15.5812 174.556 15.7296 174.358 15.8427C174.175 15.9699 173.885 16.0335 173.489 16.0335C173.178 16.0335 172.931 16.0053 172.747 15.9487C172.577 15.8922 172.422 15.772 172.28 15.5883L165.092 5.70726V14.7613C165.092 14.9875 165.064 15.1995 165.007 15.3974C164.965 15.5812 164.852 15.7296 164.668 15.8427C164.484 15.9699 164.195 16.0335 163.799 16.0335Z" fill="#212121"/>
<path d="M190.035 1.21204C190.247 1.21204 190.43 1.23324 190.586 1.27565C190.755 1.31806 190.89 1.42408 190.989 1.59371C191.088 1.7492 191.137 2.00365 191.137 2.35705C191.137 2.71045 191.088 2.97196 190.989 3.14159C190.89 3.29709 190.755 3.39604 190.586 3.43844C190.416 3.46672 190.225 3.48085 190.013 3.48085H186.112V14.7825C186.112 15.0228 186.084 15.2419 186.027 15.4398C185.985 15.6236 185.872 15.772 185.688 15.8851C185.518 15.9982 185.228 16.0547 184.818 16.0547C184.437 16.0547 184.154 15.9911 183.97 15.8639C183.786 15.7508 183.673 15.6024 183.631 15.4186C183.589 15.2207 183.567 15.0016 183.567 14.7613V3.48085H179.623C179.426 3.48085 179.242 3.45965 179.072 3.41724C178.903 3.37483 178.761 3.27588 178.648 3.12039C178.549 2.96489 178.5 2.71045 178.5 2.35705C178.5 2.00365 178.549 1.7492 178.648 1.59371C178.747 1.42408 178.881 1.31806 179.051 1.27565C179.235 1.23324 179.426 1.21204 179.623 1.21204H190.035Z" fill="#212121"/>
<path d="M27.5339 10.9765C26.5615 11.7345 25.3284 12.1208 24.0741 12.0605C23.0891 11.9164 22.1504 11.5644 21.3263 11.0302C21.0144 11.3655 20.6807 11.6819 20.3271 11.9772C20.5831 12.1261 20.8454 12.2692 21.1078 12.4061V12.4058C22.1892 13.0351 23.4318 13.3669 24.6986 13.3648C25.9749 13.2763 27.1962 12.8355 28.2144 12.0963C28.92 11.6199 28.2457 10.4943 27.5339 10.9765Z" fill="#11AE88"/>
<path d="M18.3241 8.84108C17.9872 9.19196 17.6119 9.50436 17.2054 9.77235C16.447 9.206 15.7075 8.63346 14.9679 8.06063C13.154 6.6509 11.1254 5.09683 8.71721 5.04627L8.7175 5.04656C7.65658 4.98222 6.60904 5.3067 5.77218 5.95905C5.62857 6.08209 5.4954 6.21666 5.37407 6.36162C5.11845 6.66025 4.90571 6.99286 4.74206 7.34963C4.53976 7.81372 4.38317 8.29635 4.27454 8.79078C4.23673 8.9481 4.20513 9.09925 4.17354 9.2501C4.1188 9.5271 4.06406 9.80381 4.00933 10.0808C3.54153 12.4974 3.19393 14.9516 2.78309 17.3805C2.63778 18.2488 1.31675 17.8777 1.46208 17.0155L2.30911 11.9813C2.47981 10.9933 2.60622 9.9738 2.81472 8.97961C2.90332 8.55175 3.01053 8.12393 3.14342 7.72105L3.22553 7.47551H3.22525C3.35504 7.09092 3.52235 6.72009 3.72465 6.36812C3.91566 6.03241 4.14222 5.71805 4.40096 5.43039C5.30889 4.42778 6.5693 3.81059 7.921 3.7063C10.2405 3.47988 12.3956 4.52437 14.2411 5.82701C15.6315 6.80855 16.9588 7.85308 18.3241 8.84108Z" fill="#11AE88"/>
<path d="M2.11133 4.7084C1.48255 4.10358 0.539393 5.02296 1.14287 5.63996C1.53277 6.03309 1.92887 6.43216 2.32489 6.84959H2.32517C2.49191 6.41542 2.70244 5.99829 2.95395 5.60353L2.11133 4.7084Z" fill="#2A84EE"/>
<path d="M25.2749 1.04229C24.3229 3.47685 23.2247 5.85221 21.9867 8.1556C21.7159 8.62984 21.4192 9.08866 21.0983 9.53066C20.8725 9.83813 20.6306 10.1335 20.3739 10.4158C20.0547 10.7695 19.7093 11.0991 19.3409 11.4015C19.0231 11.6392 18.6885 11.8533 18.3392 12.042L17.98 12.2429C16.109 13.1578 13.9855 13.4249 11.9451 13.0025C9.47565 12.4803 7.18363 11.3295 5.29297 9.66237L5.32447 9.50541C5.4108 9.06032 5.52864 8.62199 5.67713 8.19342C8.41127 10.5478 11.6049 12.3746 15.3158 11.7219C15.9275 11.6168 16.5211 11.4268 17.0797 11.1569C17.4526 10.9794 17.8089 10.7695 18.1444 10.529C18.5347 10.2454 18.8992 9.9281 19.2342 9.58082C19.4983 9.30642 19.7466 9.01717 19.9775 8.71448C20.284 8.3134 20.5661 7.89407 20.8217 7.45882C22.0569 5.15937 23.1529 2.78818 24.1037 0.358142C24.444 -0.445699 25.6283 0.244909 25.2753 1.04231L25.2749 1.04229Z" fill="#2A84EE"/>
</svg>
