<svg width="451" height="304" viewBox="0 0 451 304" fill="none" xmlns="http://www.w3.org/2000/svg">
<path d="M449.419 20.736C434.656 74.2988 416.672 126.932 395.574 178.352C390.894 188.974 385.632 199.327 379.822 209.377C375.725 216.375 371.263 223.152 366.457 229.684C360.489 237.865 353.914 245.593 346.791 252.798C340.596 258.522 333.993 263.786 327.025 268.543L319.876 273.582C282.338 297.042 238.034 307.367 193.972 302.93C124.94 287.138 98.3192 273.582 45.9891 246.971L0.710392 214.543C1.55528 204.944 13.7275 197.649 15.9227 188.262C78.9073 232.011 185.396 290.407 262.406 268.435C275.105 264.866 287.237 259.542 298.45 252.606C305.942 248.034 313.013 242.811 319.575 236.988C327.203 230.132 334.208 222.622 340.525 214.543C345.503 208.161 350.116 201.499 354.33 194.592C359.927 185.438 364.966 175.952 369.412 166.188C390.459 114.858 408.405 62.3172 423.154 8.85254C428.577 -8.88999 455.134 3.10116 449.428 20.7356L449.419 20.736Z" fill="url(#paint0_linear_332_586)"/>
<defs>
<linearGradient id="paint0_linear_332_586" x1="268.817" y1="212.347" x2="348.678" y2="288.406" gradientUnits="userSpaceOnUse">
<stop stop-color="#ABD2FF"/>
<stop offset="1" stop-color="#2A84EE"/>
</linearGradient>
</defs>
</svg>
