<svg width="360" height="316" viewBox="0 0 360 316" fill="none" xmlns="http://www.w3.org/2000/svg">
<path d="M359.439 102.883C353.09 111.042 346.527 118.506 338.523 125.067C321.243 114.764 282.88 90.2843 265.985 79.8036C224.534 53.997 178.226 25.612 127.207 29.8469L127.214 29.8522C104.644 30.8288 83.214 39.9952 66.9598 55.6289C64.1948 58.5463 61.6759 61.6843 59.4304 65.0161C54.6841 71.8919 50.9194 79.3919 48.2458 87.2943C44.9912 97.5507 42.7438 108.098 41.5364 118.79C41.0836 122.199 40.7485 125.464 40.4128 128.722C39.8657 134.698 39.318 140.669 38.771 146.645C34.2039 198.762 32.2608 251.408 28.925 303.659C27.7657 322.336 -0.978036 317.401 0.195309 298.854L7.01424 190.566C8.44686 169.303 8.87364 147.473 11.0918 125.997C12.0225 116.757 13.3467 107.476 15.2688 98.6669L16.4636 93.2954L16.4577 93.2961C18.3544 84.8799 21.0747 76.6722 24.5761 68.7861C27.8747 61.2686 31.9719 54.1241 36.8079 47.4731C53.7933 24.2785 79.0789 8.45513 107.424 3.27367C155.96 -6.62141 203.817 10.7127 245.701 34.1859C277.256 51.8731 328.401 85.0034 359.439 102.883Z" fill="url(#paint0_linear_332_587)"/>
<path d="M359.439 102.883C353.09 111.042 346.527 118.506 338.523 125.067C321.243 114.764 282.88 90.2843 265.985 79.8036C224.534 53.997 178.226 25.612 127.207 29.8469L127.214 29.8522C104.644 30.8288 83.214 39.9952 66.9598 55.6289C64.1948 58.5463 61.6759 61.6843 59.4304 65.0161C54.6841 71.8919 50.9194 79.3919 48.2458 87.2943C44.9912 97.5507 42.7438 108.098 41.5364 118.79C41.0836 122.199 40.7485 125.464 40.4128 128.722C39.8657 134.698 39.318 140.669 38.771 146.645C34.2039 198.762 32.2608 251.408 28.925 303.659C27.7657 322.336 -0.978036 317.401 0.195309 298.854L7.01424 190.566C8.44686 169.303 8.87364 147.473 11.0918 125.997C12.0225 116.757 13.3467 107.476 15.2688 98.6669L16.4636 93.2954L16.4577 93.2961C18.3544 84.8799 21.0747 76.6722 24.5761 68.7861C27.8747 61.2686 31.9719 54.1241 36.8079 47.4731C53.7933 24.2785 79.0789 8.45513 107.424 3.27367C155.96 -6.62141 203.817 10.7127 245.701 34.1859C277.256 51.8731 328.401 85.0034 359.439 102.883Z" fill="url(#paint1_linear_332_587)" fill-opacity="0.8"/>
<defs>
<linearGradient id="paint0_linear_332_587" x1="69.7827" y1="-9.93728" x2="147.109" y2="91.4741" gradientUnits="userSpaceOnUse">
<stop stop-color="#72F7D7"/>
<stop offset="1" stop-color="#11AE88"/>
</linearGradient>
<linearGradient id="paint1_linear_332_587" x1="260.563" y1="-33.3887" x2="171.828" y2="60.4168" gradientUnits="userSpaceOnUse">
<stop stop-color="#72F7D7"/>
<stop offset="1" stop-color="#11AE88"/>
</linearGradient>
</defs>
</svg>
